<?xml version="1.0" encoding="utf-8"?>
<!-- Generator: Adobe Illustrator 25.0.0, SVG Export Plug-In . SVG Version: 6.00 Build 0)  -->
<svg version="1.1" id="Capa_1" xmlns="http://www.w3.org/2000/svg" xmlns:xlink="http://www.w3.org/1999/xlink" x="0px" y="0px"
	 viewBox="0 0 94 61.4" style="enable-background:new 0 0 94 61.4;" xml:space="preserve">
<style type="text/css">
	.st0{fill:none;stroke:#FFFFFF;stroke-width:6;stroke-miterlimit:10;}
</style>
<g id="Grupo_381" transform="translate(137.288 62.282)">
	<path id="Trazado_518" class="st0" d="M-119.9-58.7c-12.1,8.5-15.1,25.3-6.5,37.5c8.5,12.1,25.3,15.1,37.5,6.5
		c5.4-3.8,9.2-9.4,10.7-15.7c0.6-2.5,0.8-5,0.7-7.5"/>
	<g id="Grupo_387">
		<path id="Trazado_519" class="st0" d="M-62.7-8.2c1.7-1.2,3.4-2.5,5-3.9c10.7-10.2,11.1-27.2,1-37.9c-10-10.8-26.8-11.4-37.6-1.4
			c-3.7,3.4-6.3,7.7-7.6,12.6c-0.7,2.4-1,5-0.9,7.5"/>
		<path id="Trazado_520" class="st0" d="M-64.2-23.1l-0.6,17.6L-47.3-7"/>
	</g>
</g>
</svg>
