<svg id="Capa_1" data-name="Capa 1" xmlns="http://www.w3.org/2000/svg" viewBox="0 0 170 40"><defs><style>.cls-1{fill-rule:evenodd;}.cls-2{fill:none;stroke:#000;stroke-miterlimit:10;stroke-width:3px;}</style></defs><path id="Trazado_517" data-name="Trazado 517" class="cls-1" d="M69.3,14.9h3.1V30.5H69.3Zm3.1,5.7a3,3,0,0,1,.8-2.2,2.74,2.74,0,0,1,2.3-.8,3.19,3.19,0,0,1,1.4.3,2,2,0,0,1,1,.8h0l2-2.7a4.62,4.62,0,0,0-1.5-.9,6.28,6.28,0,0,0-1.9-.3,4.38,4.38,0,0,0-2.5.8,7.52,7.52,0,0,0-1.6,1.5m21.5,3.5a3.07,3.07,0,0,0-.8-2.4,3.34,3.34,0,0,0-2.3-.9,5.66,5.66,0,0,0-1.8.3,4.81,4.81,0,0,0-1.6.8l-2.2-1.5a6.58,6.58,0,0,1,2.3-1.7,8.66,8.66,0,0,1,3.2-.6,7.54,7.54,0,0,1,3.3.7,4.51,4.51,0,0,1,2.1,2,5.66,5.66,0,0,1,.7,3.1v10H93.9V20.6Zm0,6.1a1.4,1.4,0,0,1-.9,1.2,7.46,7.46,0,0,1-2.6.4,3.48,3.48,0,0,1-2.4-.6,2.34,2.34,0,0,1-.8-1.8,1.91,1.91,0,0,1,.6-1.6,2.38,2.38,0,0,1,1.8-.5h4.3m0-2.5H89.6a5.91,5.91,0,0,0-4,1.2A4.52,4.52,0,0,0,84.3,26a4.35,4.35,0,0,0,1.4,3.6A6.49,6.49,0,0,0,90,30.8h0a11,11,0,0,0,1.8-.2,3.51,3.51,0,0,0,1.4-.6,4.35,4.35,0,0,0,.7-.6M104.1,8.7h3.1v3.1h-3.1V8.7Zm0,6.2h3.1V30.5h-3.1V14.9Zm14.4,15.7a3.61,3.61,0,0,1-2.8-1,4.91,4.91,0,0,1-.9-3.1V10.4h3.1V26.5a2.92,2.92,0,0,0,.2.9.91.91,0,0,0,.7.3h1.5v2.9Zm-.6-15.7h-3.1m3.1,2.8h2.4V14.9h-2.4m-3.1,2.8h3.1m-3.1-2.8h-1.6v2.8h1.6m14.7,3.8h0m0,2.5a4,4,0,0,0,1,2.8,3.83,3.83,0,0,0,2.9,1,3.66,3.66,0,0,0,1.8-.4,3.55,3.55,0,0,0,1.6-1.1h0l2,2h0a9,9,0,0,1-2.6,1.7,7.17,7.17,0,0,1-2.9.6h0a7.71,7.71,0,0,1-3.7-.8,5.34,5.34,0,0,1-2.3-2.4,8.38,8.38,0,0,1-.8-3.8V22a9.24,9.24,0,0,1,.8-4,6.65,6.65,0,0,1,2.2-2.5,7.3,7.3,0,0,1,3.5-.9,5.38,5.38,0,0,1,3.3,1,5.81,5.81,0,0,1,2.1,2.8,11,11,0,0,1,.7,4.4v1l-9.6.2m.1-2.5h6.9a5.39,5.39,0,0,0-1-3,2.84,2.84,0,0,0-2.3-1.1,3.48,3.48,0,0,0-2.7,1.1,5.28,5.28,0,0,0-1,3.2v2.1m16.7-8.9h3.1V30.5h-3.1Zm3.1,5.7a3,3,0,0,1,.8-2.2,2.74,2.74,0,0,1,2.3-.8,3.19,3.19,0,0,1,1.4.3,2,2,0,0,1,1,.8l2-2.7a4.62,4.62,0,0,0-1.5-.9,6.28,6.28,0,0,0-1.9-.3,4.38,4.38,0,0,0-2.5.8,6.09,6.09,0,0,0-1.6,1.6"/><g id="Grupo_381" data-name="Grupo 381"><path id="Trazado_518" data-name="Trazado 518" class="cls-2" d="M18.79,6.58A13.21,13.21,0,1,0,34,28.18a13.87,13.87,0,0,0,5.3-7.7,11.6,11.6,0,0,0,.3-3.7"/><g id="Grupo_387" data-name="Grupo 387"><path id="Trazado_519" data-name="Trazado 519" class="cls-2" d="M47,31.48a15.45,15.45,0,0,0,2.4-1.9,13.25,13.25,0,0,0,.5-18.7,13.11,13.11,0,0,0-18.5-.7,12.77,12.77,0,0,0-3.7,6.2,15,15,0,0,0-.5,3.7"/><path id="Trazado_520" data-name="Trazado 520" class="cls-2" d="M46.29,24.18l-.3,8.7,8.6-.8"/></g></g></svg>