<?xml version="1.0" encoding="utf-8"?>
<!-- Generator: Adobe Illustrator 25.0.1, SVG Export Plug-In . SVG Version: 6.00 Build 0)  -->
<svg version="1.1" id="Capa_1" xmlns="http://www.w3.org/2000/svg" xmlns:xlink="http://www.w3.org/1999/xlink" x="0px" y="0px"
	 viewBox="0 0 120 120" style="enable-background:new 0 0 120 120;" xml:space="preserve">
<style type="text/css">
	.st0{fill:#FFFFFF;}
</style>
<path class="st0" d="M8.3,2.2h103.4c3.4,0,6.1,2.7,6.1,6.1v103.4c0,3.4-2.7,6.1-6.1,6.1H8.3c-3.4,0-6.1-2.7-6.1-6.1V8.3
	C2.2,5,5,2.2,8.3,2.2z"/>
<g>
	<path d="M44.1,89.1c-9.3,0-18.1-3.7-24.7-10.2C5.7,65.3,5.6,43.3,19.1,29.6c1.4-1.4,2.9-2.7,4.5-3.8l4.6,6.5
		c-1.2,0.9-2.3,1.8-3.4,2.9C14.4,45.7,14.5,62.7,25,73.2c5,5.1,11.9,7.9,19,7.9h0.1c12.3,0,23-8.5,25.9-20.5c0.6-2.5,0.8-5,0.7-7.5
		l7.9-0.4c0.5,9.7-3.1,19.2-10,26.2C62.2,85.4,53.4,89.1,44.1,89.1L44.1,89.1z"/>
	<path d="M100.4,85.4c13.7-13.3,14.1-35.2,1-49.1c-13-14-34.9-14.8-48.9-1.8c-7.2,6.7-11.3,16.2-11.1,26.1l8-0.2
		c0-2.5,0.3-5.1,0.9-7.5c1.3-4.7,3.9-9,7.5-12.4c5.1-4.9,12-7.5,19-7.3c15,0.5,26.7,13,26.2,27.9c-0.2,7.1-3.2,13.8-8.3,18.7
		c-0.3,0.3-0.7,0.6-1,0.9l0.4-10.5l-8-0.3l-0.9,24.8l24.7-2.2l-0.7-7.9L100.4,85.4z M93.5,86L93.5,86z"/>
</g>
</svg>
