<?xml version="1.0" encoding="utf-8"?>
<!-- Generator: Adobe Illustrator 25.0.0, SVG Export Plug-In . SVG Version: 6.00 Build 0)  -->
<svg version="1.1" id="Capa_1" xmlns="http://www.w3.org/2000/svg" xmlns:xlink="http://www.w3.org/1999/xlink" x="0px" y="0px"
	 viewBox="0 0 170 40" style="enable-background:new 0 0 170 40;" xml:space="preserve">
<style type="text/css">
	.st0{fill-rule:evenodd;clip-rule:evenodd;fill:#FFFFFF;}
	.st1{fill:none;stroke:#FFFFFF;stroke-width:3;stroke-miterlimit:10;}
</style>
<g>
	<path id="Trazado_517" class="st0" d="M69.3,14.9h3.1v15.6h-3.1V14.9z M72.4,20.6c0-0.8,0.2-1.6,0.8-2.2c0.6-0.6,1.4-0.9,2.3-0.8
		c0.5,0,1,0.1,1.4,0.3c0.4,0.2,0.8,0.4,1,0.8l0,0l2-2.7c-0.4-0.4-1-0.7-1.5-0.9c-0.6-0.2-1.3-0.3-1.9-0.3c-0.9,0-1.8,0.3-2.5,0.8
		c-0.6,0.4-1.1,0.9-1.6,1.5 M93.9,20.6c0.1-0.9-0.2-1.7-0.8-2.4c-0.6-0.6-1.5-0.9-2.3-0.9c-0.6,0-1.2,0.1-1.8,0.3
		c-0.6,0.2-1.1,0.4-1.6,0.8l-2.2-1.5c0.6-0.7,1.4-1.3,2.3-1.7c1-0.4,2.1-0.6,3.2-0.6c1.1,0,2.3,0.2,3.3,0.7c0.9,0.4,1.6,1.1,2.1,2
		c0.5,1,0.8,2,0.7,3.1v10h-2.9L93.9,20.6L93.9,20.6z M93.9,26.7c0,0.5-0.4,1-0.9,1.2c-0.8,0.3-1.7,0.4-2.6,0.4
		c-0.8,0.1-1.7-0.1-2.4-0.6c-0.5-0.4-0.8-1.1-0.8-1.8c-0.1-0.6,0.2-1.2,0.6-1.6c0.5-0.4,1.2-0.6,1.8-0.5h4.3 M93.9,21.3h-4.3
		c-1.4-0.1-2.8,0.3-4,1.2c-0.9,0.9-1.4,2.2-1.3,3.5c-0.1,1.4,0.4,2.7,1.4,3.6c0.9,0.8,2.4,1.2,4.3,1.2l0,0c0.6,0,1.2-0.1,1.8-0.2
		c0.5-0.1,1-0.3,1.4-0.6c0.3-0.2,0.5-0.4,0.7-0.6 M104.1,8.7h3.1v3.1h-3.1L104.1,8.7L104.1,8.7z M104.1,14.9h3.1v15.6h-3.1
		L104.1,14.9L104.1,14.9z M118.5,30.6c-1,0.1-2.1-0.3-2.8-1c-0.6-0.9-1-2-0.9-3.1V10.4h3.1v16.1c0,0.3,0.1,0.6,0.2,0.9
		c0.2,0.2,0.4,0.3,0.7,0.3h1.5v2.9L118.5,30.6z M117.9,14.9h-3.1 M117.9,17.7h2.4v-2.8h-2.4 M114.8,17.7h3.1 M114.8,14.9h-1.6v2.8
		h1.6 M129.5,21.5L129.5,21.5 M129.5,24c0,1,0.3,2.1,1,2.8c0.8,0.7,1.8,1.1,2.9,1c0.6,0,1.3-0.1,1.8-0.4c0.6-0.2,1.2-0.6,1.6-1.1
		l0,0l2,2l0,0c-0.8,0.7-1.6,1.3-2.6,1.7c-0.9,0.4-1.9,0.6-2.9,0.6l0,0c-1.3,0-2.6-0.2-3.7-0.8c-1-0.5-1.8-1.4-2.3-2.4
		c-0.6-1.2-0.8-2.5-0.8-3.8V22c0-1.4,0.2-2.7,0.8-4c0.5-1,1.3-1.9,2.2-2.5c1.1-0.6,2.3-0.9,3.5-0.9c1.2,0,2.4,0.3,3.3,1
		c1,0.7,1.7,1.7,2.1,2.8c0.5,1.4,0.8,2.9,0.7,4.4v1L129.5,24 M129.6,21.5h6.9c0-1.1-0.4-2.1-1-3c-0.5-0.7-1.4-1.1-2.3-1.1
		c-1-0.1-2,0.4-2.7,1.1c-0.7,0.9-1,2.1-1,3.2v2c0,0,0,0.1,0,0.1 M146.2,14.9h3.1v15.6h-3.1V14.9z M149.3,20.6c0-0.8,0.2-1.6,0.8-2.2
		c0.6-0.6,1.4-0.9,2.3-0.8c0.5,0,1,0.1,1.4,0.3c0.4,0.2,0.8,0.4,1,0.8l2-2.7c-0.4-0.4-1-0.7-1.5-0.9c-0.6-0.2-1.3-0.3-1.9-0.3
		c-0.9,0-1.8,0.3-2.5,0.8c-0.6,0.4-1.2,1-1.6,1.6"/>
	<g id="Grupo_381" transform="translate(137.288 62.282)">
		<path id="Trazado_518" class="st1" d="M-118.5-55.7c-6,4.2-7.4,12.5-3.2,18.4c4.2,6,12.5,7.4,18.4,3.2c2.6-1.9,4.5-4.6,5.3-7.7
			c0.3-1.2,0.4-2.5,0.3-3.7"/>
		<g id="Grupo_387">
			<path id="Trazado_519" class="st1" d="M-90.3-30.8c0.9-0.6,1.7-1.2,2.4-1.9c5.3-5,5.5-13.4,0.5-18.7c-4.9-5.3-13.2-5.6-18.5-0.7
				c-1.8,1.7-3.1,3.8-3.7,6.2c-0.3,1.2-0.5,2.4-0.5,3.7"/>
			<path id="Trazado_520" class="st1" d="M-91-38.1l-0.3,8.7l8.6-0.8"/>
		</g>
	</g>
</g>
</svg>
